<?xml version="1.0" standalone="no"?>
<!DOCTYPE svg PUBLIC "-//W3C//DTD SVG 20010904//EN"
 "http://www.w3.org/TR/2001/REC-SVG-20010904/DTD/svg10.dtd">
<svg version="1.0" xmlns="http://www.w3.org/2000/svg"
 width="800.000000pt" height="800.000000pt" viewBox="0 0 800.000000 800.000000"
 preserveAspectRatio="xMidYMid meet">

<g transform="translate(0.000000,800.000000) scale(0.100000,-0.100000)"
fill="#000000" stroke="none">
<path d="M3977 4644 c-4 -4 -7 -42 -7 -84 0 -57 4 -81 15 -90 22 -19 45 5 45
46 0 32 2 34 28 28 126 -31 221 -156 295 -390 19 -61 45 -130 57 -153 31 -61
94 -126 147 -152 84 -41 243 -20 243 32 0 19 -4 20 -32 14 -18 -4 -60 -9 -93
-12 -126 -10 -201 66 -265 269 -75 235 -155 359 -272 417 -34 17 -71 31 -84
31 -16 0 -24 7 -26 23 -3 22 -36 36 -51 21z"/>
<path d="M3813 4541 c-89 -65 -162 -192 -227 -401 -59 -190 -137 -266 -261
-257 -33 3 -75 8 -92 12 -29 6 -33 5 -33 -14 0 -53 143 -72 238 -31 57 25 119
86 152 151 12 23 38 92 57 153 48 152 102 252 169 316 48 45 54 55 47 77 l-8
24 -42 -30z"/>
<path d="M5327 4183 c-4 -3 -7 -39 -7 -80 l0 -73 -32 20 c-89 54 -191 -7 -191
-115 0 -82 52 -135 133 -135 50 0 91 20 116 57 16 23 19 51 22 166 3 98 0 142
-8 152 -14 16 -23 19 -33 8z m-36 -182 c80 -81 -25 -211 -114 -141 -34 27 -44
78 -22 119 29 57 91 67 136 22z"/>
<path d="M2167 4173 c-4 -3 -7 -17 -7 -30 0 -18 5 -23 25 -23 14 0 28 7 31 15
11 27 -30 58 -49 38z"/>
<path d="M6044 4166 c-10 -26 4 -48 28 -44 17 2 23 10 23 28 0 18 -6 26 -23
28 -13 2 -25 -3 -28 -12z"/>
<path d="M1246 4049 c-29 -22 -35 -63 -13 -92 7 -10 39 -26 71 -35 66 -20 88
-41 67 -66 -17 -20 -81 -21 -107 -1 -28 21 -54 19 -54 -5 0 -28 49 -50 113
-50 44 0 59 5 81 25 53 49 25 103 -68 130 -66 19 -83 36 -61 59 20 20 65 21
91 1 25 -19 54 -19 54 -1 0 28 -50 56 -100 56 -33 0 -55 -6 -74 -21z"/>
<path d="M1543 4050 c-86 -52 -82 -189 6 -235 38 -19 104 -19 142 1 35 18 33
40 -2 36 -13 -2 -42 -6 -64 -8 -31 -4 -46 -1 -68 16 -15 12 -27 30 -27 41 0
17 8 19 99 19 55 0 103 4 106 10 12 19 -16 89 -46 114 -38 32 -99 35 -146 6z
m122 -45 c45 -44 35 -55 -55 -55 -72 0 -80 2 -80 19 0 27 46 61 82 61 17 0 39
-10 53 -25z"/>
<path d="M1760 4053 c0 -10 17 -70 38 -133 31 -93 42 -115 58 -115 15 0 24 17
44 87 14 49 28 88 31 88 3 0 13 -33 24 -72 37 -147 54 -145 107 12 43 129 46
153 21 148 -13 -2 -27 -31 -49 -98 l-32 -95 -12 45 c-35 134 -42 151 -58 148
-17 -3 -30 -33 -58 -133 l-17 -60 -31 95 c-22 67 -36 96 -49 98 -11 2 -17 -3
-17 -15z"/>
<path d="M2165 4048 c-3 -13 -5 -72 -3 -133 3 -106 4 -110 26 -113 l23 -3 -3
133 c-3 116 -5 133 -20 136 -11 2 -19 -5 -23 -20z"/>
<path d="M2314 4057 c-2 -7 -3 -67 -2 -133 3 -111 4 -119 23 -119 18 0 20 8
23 92 3 86 5 94 29 113 14 11 36 20 48 20 12 0 34 -9 48 -20 24 -19 26 -27 29
-113 3 -87 4 -92 26 -95 22 -3 22 -1 22 98 l0 102 -34 34 c-28 28 -41 34 -78
34 -24 0 -53 -7 -65 -15 -19 -13 -22 -13 -27 0 -7 18 -35 20 -42 2z"/>
<path d="M2705 4055 c-37 -20 -53 -40 -65 -85 -13 -51 3 -110 40 -142 42 -38
115 -40 154 -3 l26 24 0 -25 c0 -86 -101 -134 -156 -73 -23 25 -54 25 -54 0 0
-29 56 -64 109 -68 56 -6 106 23 134 77 24 46 21 212 -5 249 -41 58 -120 78
-183 46z m126 -54 c80 -81 -25 -211 -114 -141 -51 40 -43 129 13 157 40 20 69
15 101 -16z"/>
<path d="M5525 4061 c-45 -20 -69 -59 -73 -121 -4 -59 -4 -61 36 -100 36 -36
45 -40 90 -40 63 0 102 17 102 43 0 16 -4 18 -22 12 -13 -4 -42 -10 -65 -12
-37 -4 -46 -1 -73 26 -17 17 -29 35 -25 41 3 6 50 10 107 10 l101 0 -6 46 c-7
64 -40 96 -104 100 -26 2 -57 0 -68 -5z m110 -56 c45 -44 35 -55 -54 -55 -44
0 -83 5 -86 10 -4 6 7 24 24 40 38 38 82 40 116 5z"/>
<path d="M5804 4059 c-30 -15 -46 -53 -34 -83 11 -29 36 -44 98 -60 55 -14 76
-40 48 -62 -25 -18 -77 -18 -102 1 -42 32 -81 8 -46 -28 26 -25 118 -35 161
-17 37 15 55 60 39 95 -11 25 -34 37 -106 55 -49 13 -64 36 -37 56 24 18 53
18 89 -1 54 -28 78 -8 36 30 -24 22 -114 30 -146 14z"/>
<path d="M6057 4064 c-4 -4 -7 -65 -7 -136 0 -122 1 -128 20 -128 20 0 20 5
18 132 -3 122 -10 153 -31 132z"/>
<path d="M6255 4060 c-40 -16 -68 -58 -73 -110 -5 -60 10 -103 48 -130 38 -27
109 -27 144 1 l26 20 0 -29 c0 -36 -31 -78 -65 -86 -24 -6 -71 10 -107 36 -21
15 -42 -1 -32 -25 8 -21 83 -57 120 -57 43 0 95 32 116 71 23 43 25 192 4 244
-26 61 -115 93 -181 65z m116 -59 c58 -59 26 -161 -51 -161 -45 0 -70 16 -86
57 -40 94 66 174 137 104z"/>
<path d="M6534 4057 c-2 -7 -3 -67 -2 -133 3 -111 4 -119 23 -119 18 0 20 8
23 92 3 86 5 94 29 113 14 11 36 20 48 20 12 0 34 -9 48 -20 24 -19 26 -27 29
-113 3 -87 4 -92 26 -95 22 -3 22 -1 22 98 l0 102 -34 34 c-28 28 -41 34 -78
34 -24 0 -53 -7 -65 -15 -19 -13 -22 -13 -27 0 -7 18 -35 20 -42 2z"/>
</g>
</svg>
