<svg width="50" height="50" xmlns="http://www.w3.org/2000/svg">
 <!-- Created with Method Draw - http://github.com/duopixel/Method-Draw/ -->
 <defs>
  <linearGradient spreadMethod="pad" y2="0" x2="1" y1="0" x1="0" id="svg_6">
   <stop offset="0.015625" stop-color="#000000"/>
   <stop offset="1" stop-color="#ffffff"/>
  </linearGradient>
  <linearGradient y2="0" x2="1" y1="0" x1="0.003906" id="svg_8">
   <stop offset="0.277344" stop-opacity="0.996094" stop-color="#00ff7f"/>
   <stop offset="0.570313" stop-opacity="0.996094" stop-color="#ff007f"/>
   <stop offset="1" stop-opacity="0.996094" stop-color="#00a1ff"/>
  </linearGradient>
 </defs>
 <g>
  <title>background</title>
  <rect fill="#fff" id="canvas_background" height="52" width="52" y="-1" x="-1"/>
  <g display="none" overflow="visible" y="0" x="0" height="100%" width="100%" id="canvasGrid">
   <rect fill="url(#gridpattern)" stroke-width="0" y="0" x="0" height="100%" width="100%"/>
  </g>
 </g>
 <g>
  <title>Layer 1</title>
  <path stroke-opacity="0" id="svg_1" d="m21.395889,32.00875c-0.383654,-0.801254 -7.323013,0.200458 -3.691685,-0.837324c1.406737,-0.223852 4.295265,0.056833 1.423403,-0.548414c3.270318,0.759246 4.719688,-1.901391 4.930811,-3.695123c-3.043935,-0.652649 -3.571093,-3.090292 -6.778816,-3.74677c-2.444031,-1.318467 -6.02702,-1.278148 -7.57829,-3.31101c-1.472801,-1.81015 -0.641013,-4.013529 -0.397202,-5.968895c0.580386,-2.064268 1.75867,-4.153584 1.525657,-6.251176c-2.375453,0.941116 -3.243944,-1.162761 -3.298117,-1.819914c-1.748524,0.307696 -2.856172,0.321332 -0.954751,-0.748998c0.849697,-0.810852 1.27141,-2.58194 2.628831,-2.316093c0.358124,-1.072089 1.308586,0.487437 2.359462,-0.459815c0.643947,0.334575 2.005852,0.707546 0.496229,1.297459c2.725863,0.946477 4.933035,2.386462 6.068571,4.226633c1.137922,1.870214 3.404989,3.89131 7.065978,3.385289c3.31484,0.391648 7.198559,-0.977154 7.047641,-3.273918c0.064256,-1.627263 2.391748,-5.427607 5.528591,-3.49607c2.350814,0.620366 5.055811,2.156996 4.50122,3.900839c-0.321182,1.798018 -0.073029,3.611583 0.231835,5.424247c-1.968868,1.004306 -1.615389,2.748835 -2.990391,4.062425c1.140691,1.849598 0.042115,3.847759 -1.825073,5.349837c-1.867735,1.384497 -4.597633,2.614089 -7.623293,2.43425c-1.155945,1.324195 1.364894,2.489292 2.254255,2.563485c-2.317531,-0.511202 -1.991113,0.469032 -1.227009,1.516484c0.715901,1.961048 -1.531513,-1.747048 -2.983167,0.027148c-1.125575,0.765968 -5.62577,1.025249 -1.982414,0.107166c3.109309,-0.793758 -3.491524,-1.290075 -2.026331,0.498628c0.484908,0.746272 3.29649,1.07487 0.336999,0.790523c-1.306739,-0.472659 -2.005698,1.205662 -3.042946,0.889107l0.000001,0.000001zm6.237424,-3.449222c1.137681,-0.952827 1.465078,-3.709485 -0.995407,-1.699696c-1.944799,1.084629 -2.647936,2.951418 0.995407,1.699696z" stroke-width="1.5" stroke="url(#svg_6)" fill="url(#svg_8)"/>
  <text font-style="italic" transform="matrix(0.797556, 0, 0, 0.733227, 0.596954, 6.42455)" xml:space="preserve" text-anchor="start" font-family="Junction, sans-serif" font-size="24" id="svg_2" y="58.195645" x="6.002918" stroke-opacity="null" stroke-width="0" stroke="#000" fill="#000000">PDC</text>
 </g>
</svg>